<svg width="45" height="45" viewBox="0 0 45 45" fill="none" xmlns="http://www.w3.org/2000/svg">
<path d="M16.875 4.5C17.1734 4.5 17.4595 4.61853 17.6705 4.82951C17.8815 5.04048 18 5.32663 18 5.625V10.125C18 10.4234 17.8815 10.7095 17.6705 10.9205C17.4595 11.1315 17.1734 11.25 16.875 11.25C16.5766 11.25 16.2905 11.1315 16.0795 10.9205C15.8685 10.7095 15.75 10.4234 15.75 10.125V5.625C15.75 5.32663 15.8685 5.04048 16.0795 4.82951C16.2905 4.61853 16.5766 4.5 16.875 4.5ZM8.1225 8.1225C8.227 8.01773 8.35115 7.93461 8.48782 7.8779C8.6245 7.82118 8.77102 7.79199 8.919 7.79199C9.06698 7.79199 9.2135 7.82118 9.35018 7.8779C9.48685 7.93461 9.611 8.01773 9.7155 8.1225L12.897 11.3063C13.0044 11.41 13.0902 11.5342 13.1491 11.6714C13.2081 11.8087 13.2391 11.9563 13.2404 12.1057C13.2417 12.2551 13.2132 12.4032 13.1567 12.5414C13.1001 12.6797 13.0166 12.8053 12.9109 12.9109C12.8053 13.0166 12.6797 13.1001 12.5414 13.1567C12.4032 13.2132 12.2551 13.2417 12.1057 13.2404C11.9563 13.2391 11.8087 13.2081 11.6714 13.1491C11.5342 13.0902 11.41 13.0044 11.3063 12.897L8.12475 9.7155C7.91385 9.50453 7.79537 9.21843 7.79537 8.92013C7.79537 8.62182 7.91385 8.33572 8.12475 8.12475L8.1225 8.1225ZM25.6275 8.1225C25.7323 8.227 25.8154 8.35115 25.8721 8.48782C25.9288 8.6245 25.958 8.77102 25.958 8.919C25.958 9.06698 25.9288 9.2135 25.8721 9.35018C25.8154 9.48685 25.7323 9.611 25.6275 9.7155L22.4415 12.897C22.3377 13.0044 22.2136 13.0902 22.0763 13.1491C21.9391 13.2081 21.7915 13.2391 21.6421 13.2404C21.4927 13.2417 21.3446 13.2132 21.2063 13.1567C21.068 13.1001 20.9424 13.0166 20.8368 12.9109C20.7312 12.8053 20.6476 12.6797 20.5911 12.5414C20.5345 12.4032 20.506 12.2551 20.5073 12.1057C20.5086 11.9563 20.5397 11.8087 20.5986 11.6714C20.6576 11.5342 20.7433 11.41 20.8507 11.3063L24.0322 8.12475C24.2432 7.91385 24.5293 7.79537 24.8276 7.79537C25.1259 7.79537 25.412 7.91385 25.623 8.12475L25.6275 8.1225ZM4.5 16.875C4.5 16.5766 4.61853 16.2905 4.82951 16.0795C5.04048 15.8685 5.32663 15.75 5.625 15.75H10.125C10.4234 15.75 10.7095 15.8685 10.9205 16.0795C11.1315 16.2905 11.25 16.5766 11.25 16.875C11.25 17.1734 11.1315 17.4595 10.9205 17.6705C10.7095 17.8815 10.4234 18 10.125 18H5.625C5.32663 18 5.04048 17.8815 4.82951 17.6705C4.61853 17.4595 4.5 17.1734 4.5 16.875ZM16.875 18.072V38.907C16.8746 39.1298 16.9404 39.3477 17.064 39.5331C17.1875 39.7184 17.3634 39.8629 17.5692 39.9483C17.775 40.0336 18.0015 40.0559 18.22 40.0123C18.4385 39.9687 18.6392 39.8612 18.7965 39.7035L24.5565 33.9435C25.4002 33.0995 26.5446 32.6253 27.738 32.625H35.01C35.2435 32.6248 35.4712 32.552 35.6615 32.4166C35.8517 32.2812 35.9951 32.0899 36.0718 31.8693C36.1485 31.6487 36.1546 31.4097 36.0893 31.1855C36.024 30.9613 35.8906 30.763 35.7075 30.618L18.6975 17.1877C18.5316 17.0566 18.3321 16.9749 18.1218 16.952C17.9116 16.9291 17.6992 16.966 17.5089 17.0583C17.3187 17.1506 17.1583 17.2946 17.0461 17.474C16.934 17.6533 16.8747 17.8605 16.875 18.072Z" fill="white"/>
</svg>
