<svg width="29" height="34" viewBox="0 0 29 34" fill="none" xmlns="http://www.w3.org/2000/svg">
<path d="M22.5168 15.8587C22.0659 15.8606 21.6234 16.0059 21.2338 16.2798C20.9985 15.8296 20.6727 15.4584 20.2866 15.2007C19.9006 14.943 19.4668 14.8071 19.0256 14.8058C18.5747 14.8077 18.1321 14.953 17.7426 15.2269C17.425 14.6242 16.9475 14.169 16.388 13.9357C15.8284 13.7024 15.2199 13.7048 14.6615 13.9424V8.48829C14.6615 7.65054 14.3857 6.84711 13.8946 6.25473C13.4036 5.66235 12.7376 5.32956 12.0431 5.32956C11.3487 5.32956 10.6827 5.66235 10.1916 6.25473C9.70058 6.84711 9.42471 7.65054 9.42471 8.48829V20.1756L7.47835 18.5752C7.03216 18.1743 6.48979 17.9599 5.93348 17.9645C5.41414 17.9629 4.90615 18.1477 4.4741 18.4954C4.04204 18.843 3.70544 19.3378 3.50709 19.9168C3.30874 20.4958 3.2576 21.1329 3.36017 21.7471C3.46274 22.3612 3.71439 22.9247 4.08313 23.3659L11.0656 31.0522C12.0541 32.1195 13.3349 32.7083 14.6615 32.7052H19.0256C20.646 32.7052 22.2 31.9287 23.3458 30.5465C24.4915 29.1643 25.1352 27.2896 25.1352 25.3349V19.0174C25.1352 18.1796 24.8594 17.3762 24.3683 16.7838C23.8773 16.1915 23.2113 15.8587 22.5168 15.8587ZM23.3896 25.3349C23.3896 26.7311 22.9298 28.0702 22.1114 29.0575C21.293 30.0447 20.183 30.5994 19.0256 30.5994H14.6615C13.7793 30.6123 12.9233 30.2381 12.2526 29.5465L5.31379 21.8603C5.15254 21.6641 5.06164 21.3994 5.06067 21.1232C5.06067 20.9277 5.10581 20.736 5.19102 20.5697C5.27624 20.4033 5.39817 20.2689 5.54315 20.1815C5.68813 20.094 5.85043 20.057 6.01186 20.0746C6.1733 20.0921 6.32749 20.1636 6.45716 20.2809L11.1703 24.1767V8.48829C11.1703 8.20904 11.2623 7.94123 11.426 7.74377C11.5896 7.54631 11.8116 7.43538 12.0431 7.43538C12.2746 7.43538 12.4966 7.54631 12.6603 7.74377C12.824 7.94123 12.9159 8.20904 12.9159 8.48829V20.0703H14.6615V16.9116C14.6615 16.6323 14.7535 16.3645 14.9172 16.1671C15.0809 15.9696 15.3029 15.8587 15.5344 15.8587C15.7658 15.8587 15.9878 15.9696 16.1515 16.1671C16.3152 16.3645 16.4072 16.6323 16.4072 16.9116V20.0703H18.1528V17.9645C18.1528 17.6852 18.2447 17.4174 18.4084 17.22C18.5721 17.0225 18.7941 16.9116 19.0256 16.9116C19.2571 16.9116 19.4791 17.0225 19.6428 17.22C19.8064 17.4174 19.8984 17.6852 19.8984 17.9645V20.0703H21.644V19.0174C21.644 18.7381 21.736 18.4703 21.8996 18.2729C22.0633 18.0754 22.2853 17.9645 22.5168 17.9645C22.7483 17.9645 22.9703 18.0754 23.134 18.2729C23.2977 18.4703 23.3896 18.7381 23.3896 19.0174V25.3349Z" fill="white"/>
</svg>
