<svg width="28" height="28" viewBox="0 0 28 28" fill="none" xmlns="http://www.w3.org/2000/svg">
<path d="M22.75 18.375V17.5C22.75 17.2679 22.8422 17.0454 23.0063 16.8813C23.1704 16.7172 23.393 16.625 23.625 16.625C23.8571 16.625 24.0797 16.7172 24.2437 16.8813C24.4078 17.0454 24.5 17.2679 24.5 17.5V26.25H26.25V17.5C26.2493 16.804 25.9726 16.1367 25.4804 15.6446C24.9883 15.1525 24.321 14.8757 23.625 14.875C23.173 14.8779 22.7296 14.9988 22.3388 15.2259C21.9846 14.6525 21.4205 14.2402 20.7667 14.0767C20.1129 13.9133 19.4211 14.0117 18.8388 14.3509C18.6034 13.9762 18.2769 13.6672 17.8898 13.4528C17.5027 13.2384 17.0675 13.1257 16.625 13.125C16.3262 13.1281 16.0302 13.1828 15.75 13.2869V8.75C15.75 8.05381 15.4735 7.38613 14.9812 6.89384C14.4889 6.40156 13.8212 6.125 13.125 6.125C12.4288 6.125 11.7612 6.40156 11.2689 6.89384C10.7766 7.38613 10.5 8.05381 10.5 8.75V18.4669L8.5444 17.1281V17.129C8.01007 16.7386 7.34793 16.5644 6.69064 16.6415C6.03336 16.7185 5.42945 17.0411 4.99992 17.5445C4.57038 18.048 4.34693 18.6952 4.37432 19.3564C4.40172 20.0176 4.67794 20.6441 5.14765 21.1102L10.7827 26.25L11.9613 24.9567L6.38053 19.866C6.29935 19.7853 6.23498 19.6893 6.19112 19.5836C6.14727 19.4778 6.1248 19.3645 6.12503 19.25C6.12503 19.0875 6.17028 18.9282 6.25571 18.79C6.34114 18.6518 6.46337 18.54 6.60872 18.4674C6.75406 18.3947 6.91677 18.3639 7.07861 18.3785C7.24045 18.3931 7.39503 18.4525 7.52503 18.55L12.25 21.7831V8.75C12.25 8.51794 12.3422 8.29538 12.5063 8.13128C12.6704 7.96719 12.893 7.875 13.125 7.875C13.3571 7.875 13.5797 7.96719 13.7437 8.13128C13.9078 8.29538 14 8.51794 14 8.75V18.375H15.75V15.75C15.75 15.5179 15.8422 15.2954 16.0063 15.1313C16.1704 14.9672 16.393 14.875 16.625 14.875C16.8571 14.875 17.0797 14.9672 17.2437 15.1313C17.4078 15.2954 17.5 15.5179 17.5 15.75V18.375H19.25V16.625C19.25 16.3929 19.3422 16.1704 19.5063 16.0063C19.6704 15.8422 19.893 15.75 20.125 15.75C20.3571 15.75 20.5797 15.8422 20.7437 16.0063C20.9078 16.1704 21 16.3929 21 16.625V18.375H22.75Z" fill="white"/>
<path d="M24.5 10.5H19.25V8.75H24.5V3.5H3.5V8.75H7V10.5H3.5C3.03601 10.4995 2.59116 10.315 2.26307 9.98693C1.93499 9.65884 1.75046 9.21399 1.75 8.75V3.5C1.75046 3.03601 1.93499 2.59116 2.26307 2.26307C2.59116 1.93499 3.03601 1.75046 3.5 1.75H24.5C24.964 1.75046 25.4088 1.93499 25.7369 2.26307C26.065 2.59116 26.2495 3.03601 26.25 3.5V8.75C26.2495 9.21399 26.065 9.65884 25.7369 9.98693C25.4088 10.315 24.964 10.4995 24.5 10.5Z" fill="white"/>
</svg>
