<svg width="26" height="30" viewBox="0 0 26 30" fill="none" xmlns="http://www.w3.org/2000/svg">
<path d="M16.25 7.5H14.625C14.625 6.2568 14.197 5.06451 13.4351 4.18544C12.6733 3.30636 11.6399 2.8125 10.5625 2.8125C9.48506 2.8125 8.45175 3.30636 7.68988 4.18544C6.92801 5.06451 6.5 6.2568 6.5 7.5H4.875C4.875 5.75952 5.47422 4.09032 6.54083 2.85961C7.60744 1.6289 9.05408 0.9375 10.5625 0.9375C12.0709 0.9375 13.5176 1.6289 14.5842 2.85961C15.6508 4.09032 16.25 5.75952 16.25 7.5Z" fill="white"/>
<path d="M20.3127 14.0625C19.8929 14.0642 19.4809 14.1936 19.1183 14.4375C18.8992 14.0366 18.5959 13.7061 18.2366 13.4766C17.8772 13.2472 17.4734 13.1262 17.0627 13.125C16.6429 13.1267 16.2309 13.2561 15.8683 13.5C15.5727 12.9633 15.1282 12.558 14.6073 12.3503C14.0864 12.1426 13.5199 12.1447 13.0002 12.3563V7.5C13.0002 6.75408 12.7434 6.03871 12.2862 5.51126C11.8291 4.98382 11.2091 4.6875 10.5627 4.6875C9.91619 4.6875 9.2962 4.98382 8.83908 5.51126C8.38196 6.03871 8.12516 6.75408 8.12516 7.5V17.9063L6.31328 16.4813C5.89793 16.1243 5.39303 15.9334 4.87516 15.9375C4.3917 15.9361 3.91881 16.1007 3.51661 16.4102C3.11441 16.7197 2.80107 17.1603 2.61642 17.6758C2.43178 18.1914 2.38417 18.7586 2.47966 19.3055C2.57514 19.8523 2.8094 20.354 3.15266 20.7469L9.65266 27.5906C10.5729 28.541 11.7652 29.0652 13.0002 29.0625H17.0627C18.5711 29.0625 20.0177 28.3711 21.0843 27.1404C22.1509 25.9097 22.7502 24.2405 22.7502 22.5V16.875C22.7502 16.1291 22.4934 15.4137 22.0362 14.8863C21.5791 14.3588 20.9591 14.0625 20.3127 14.0625ZM21.1252 22.5C21.1252 23.7432 20.6971 24.9355 19.9353 25.8146C19.1734 26.6936 18.1401 27.1875 17.0627 27.1875H13.0002C12.1789 27.199 11.382 26.8658 10.7577 26.25L4.29828 19.4063C4.14818 19.2316 4.06356 18.9959 4.06266 18.75C4.06266 18.5759 4.10468 18.4052 4.184 18.2571C4.26333 18.109 4.37684 17.9893 4.5118 17.9115C4.64676 17.8336 4.79784 17.8007 4.94812 17.8163C5.09841 17.8319 5.24194 17.8955 5.36266 18L9.75016 21.4688V7.5C9.75016 7.25136 9.83576 7.0129 9.98813 6.83709C10.1405 6.66127 10.3472 6.5625 10.5627 6.5625C10.7781 6.5625 10.9848 6.66127 11.1372 6.83709C11.2896 7.0129 11.3752 7.25136 11.3752 7.5V17.8125H13.0002V15C13.0002 14.7514 13.0858 14.5129 13.2381 14.3371C13.3905 14.1613 13.5972 14.0625 13.8127 14.0625C14.0281 14.0625 14.2348 14.1613 14.3872 14.3371C14.5396 14.5129 14.6252 14.7514 14.6252 15V17.8125H16.2502V15.9375C16.2502 15.6889 16.3358 15.4504 16.4881 15.2746C16.6405 15.0988 16.8472 15 17.0627 15C17.2781 15 17.4848 15.0988 17.6372 15.2746C17.7896 15.4504 17.8752 15.6889 17.8752 15.9375V17.8125H19.5002V16.875C19.5002 16.6264 19.5858 16.3879 19.7381 16.2121C19.8905 16.0363 20.0972 15.9375 20.3127 15.9375C20.5281 15.9375 20.7348 16.0363 20.8872 16.2121C21.0396 16.3879 21.1252 16.6264 21.1252 16.875V22.5Z" fill="white"/>
</svg>
